<?xml version="1.0" encoding="utf-8"?>
<!-- Generator: Adobe Illustrator 18.0.0, SVG Export Plug-In . SVG Version: 6.00 Build 0)  -->
<!DOCTYPE svg PUBLIC "-//W3C//DTD SVG 1.1//EN" "http://www.w3.org/Graphics/SVG/1.1/DTD/svg11.dtd">
<svg version="1.1" id="Capa_1" xmlns="http://www.w3.org/2000/svg" xmlns:xlink="http://www.w3.org/1999/xlink" x="0px" y="0px"
	 viewBox="0 0 500 500" enable-background="new 0 0 500 500" xml:space="preserve">
<g>
	<path fill="#FFFFFF" d="M93.8,126.6L63.1,79c-1.7-2.7-5.4-3.5-8.1-1.7c-2.7,1.7-3.5,5.4-1.7,8.1L84,132.8c-3.5,5-3.7,11.8-0.4,17.2
		c2.9,4.4,7.7,7.1,12.9,7.1c2.9,0,5.8-0.8,8.3-2.5c3.5-2.3,5.8-5.6,6.6-9.8c0.8-3.9,0.2-8.1-2.1-11.6
		C106.2,128,99.6,125.5,93.8,126.6z M98.5,144.8c-1.7,1-4.1,0.6-5.2-1c-1-1.7-0.6-4.1,1-5.2c0.6-0.4,1.2-0.6,2.1-0.6
		c1.2,0,2.5,0.6,3.1,1.7c0.6,0.8,0.6,1.9,0.6,2.9C100,143.4,99.4,144.2,98.5,144.8z M498.8,336.5c5.6-37.8-11.2-62-22.6-78.6
		c-13.7-19.7-36.7-32.6-44.6-36.7c-9.3-40.5-46.5-50.4-64.7-50c-0.6,0-1.2,0-2.1,0c-26.8,0-57.9-13.9-67.6-18.5
		c0.4-18.5,3.3-29.7,3.9-32.2c8.3-13.5,11-23.7,8.1-31.3c-0.8-2.3-2.1-4.1-3.5-5.4c5.6-49.8-34.2-59.3-34.9-59.5
		c-0.4,0-9.8-1.7-16.4-1.2c-7.3-0.6-16.8,1-17.4,1.2c-0.4,0-40,9.8-34.6,59.3c-1.5,1.2-2.7,3.1-3.5,5.4c-2.9,7.7-0.2,17.8,8.1,31.3
		c0.8,2.5,3.7,13.7,3.9,32.2c-4.4,2.1-12.7,5.8-23,9.5c5.2-24.5,0.8-49.8-13.1-71.2c-13.7-21.4-35.1-36.1-59.8-41.3
		c-0.2,0-0.2,0-0.4,0l0.6-5.6c3.5-1.9,5.8-5,6.2-8.5c0.4-3.7-1.2-7.5-4.8-10.2c-2.7-2.1-6.4-3.5-10.4-3.9c-9.3-1-17,3.5-17.8,10.6
		c-0.4,3.5,1.2,7.1,4.1,9.8l-0.6,6c-11.6,0.4-23,2.7-33.8,7.3l-5.6-8.5c2.9-5.6,2.9-11.2,0.2-15.6c-1.9-3.1-5.2-5.2-9.1-6
		c-6-1.2-13.3,0.4-19.7,4.6c-11.2,7.1-15.8,18.9-10.8,27c2.9,4.4,8.1,6.6,14.3,6.4l5.2,8.1C17.4,84,6.6,102.1,2.1,122.4
		c-5.4,24.9-0.8,50.2,13.1,71.6c11,17,27.2,29.9,45.9,37.1c-9.1,6.6-20.1,15.8-28,27.2l-1.5,2.1c-11,15.8-27.6,39.6-22,76.3
		c0.4,2.1,11.4,49.6,20.3,66.2c2.3,4.4-2.5,18.9-3.9,23.7c-0.2,0.4-0.2,1-0.2,1.5c0,1.7-0.8,16.6,4.6,27c0.2,3.1,1.2,9.5,6,14.1
		c2.5,2.3,5.4,3.7,8.9,4.1c2.7,2.3,7.1,4.4,13.3,3.9c1.7,0.6,4.1,1.5,7.3,1.5c1.5,0,3.3-0.2,5.2-0.6c2.5,0.4,7.1,0.6,12.9-1.2
		c2.9,0.4,6.4,0,9.1-2.3c3.1-2.5,4.8-6.8,4.6-12.4c0.6-0.4,1.5-1,1.9-1.9c3.7-4.1,4.8-11,3.1-20.5c-0.2-0.6-0.4-1.2-0.6-1.9
		c-0.4-0.8-11.2-18.9-24.7-28c-1-9.5-2.1-22.6-1.2-26.3c3.5-15.4,7.1-37.1,0.2-54.6c8.5-3.1,23-9.1,29.9-15.1
		c6.4-5.6,11.2-10.2,15.6-14.9c3.7,13.5,15.8,32.2,46.7,56.4c-1,13.3-3.9,63.7,7.9,93.4c1.2,2.9,4.6,4.4,7.5,3.3
		c2.9-1.2,4.6-4.6,3.3-7.5c-12.2-31.1-6.8-90.7-6.8-91.3c0.2-2.1-0.6-3.9-2.3-5.2c-50.2-39-47.1-59.1-45-64.5c0.2-0.4,0.2-1,0.2-1.7
		c9.1,18.9,30.3,32,55,32c32.8,0,59.5-23.4,59.5-52.3v-23.9c0-3.1-2.7-5.8-5.8-5.8c-3.3,0-5.8,2.7-5.8,5.8v24.1
		c0,22.4-21.6,40.7-47.9,40.7S140,284,140,261.6c0-3.1-2.7-5.8-5.8-5.8c-3.1,0-5.8,2.7-5.8,5.8c0,5.4,1.2,10.6,3.1,15.6
		c-0.4-0.4-0.8-0.8-1.2-1c-2.7-1.5-6-0.4-7.5,2.1C115.8,289,110,295,98.8,305c-6.4,5.8-25.3,12.9-32,14.9c-1.7,0.6-3.1,1.9-3.7,3.5
		c-0.6,1.7-0.4,3.5,0.4,5c8.7,14.7,5,36.9,1.5,52.3c-1.7,7.7,0.8,29,1.2,33.2c0.2,1.9,1.2,3.5,2.9,4.4c10.4,5.8,20.1,20.5,22.4,24.5
		c1,7.3-0.2,9.3,0.2,9.5c-1.7,0-3.3,0.6-4.4,1.9c-1.2,1.2-1.7,2.9-1.5,4.8c0.6,5-0.2,6.6-0.4,6.2c-1.2-0.4-2.7-0.4-3.9,0
		c-5.4,2.1-8.7,1.2-8.7,1.2c-1-0.4-2.3-0.4-3.5,0c-4.1,1.2-6.2,0-6.4,0l0,0c-1.2-0.8-2.7-1.2-4.1-1c-4.4,0.6-5.8-1-6-1
		c-1-1.7-2.9-2.9-5.2-2.7c-1.7,0-2.7-0.4-3.1-1c-2.1-1.9-2.5-6-2.5-7.3c0-1-0.2-2.1-0.8-2.9c-3.5-5.8-3.9-16.4-3.7-21
		c3.7-11.4,7.1-24.1,2.9-32c-8.1-15.4-19.1-62.9-19.1-63.1c-4.8-31.7,9.5-52.5,20.1-67.6l1.5-2.3c9.3-13.5,23.9-23.9,33-29.7
		c1.5,0.4,2.9,0.6,4.4,1c0.2,0,0.6,0,0.8,0c2.9,0,5.2-2.1,5.8-5c0.2-1,0-1.9-0.4-2.9c0.6-0.6,1-1.5,1.2-2.5
		c6.8-35.3,37.8-44,53.5-43.6c5.4,0.2,11-0.4,16.8-1.2c0.2,0,0.4,0.2,0.6,0.2c0.6,0,1-0.2,1.7-0.4c5.4-0.8,10.8-2.1,15.8-3.3
		c0.4,0.2,0.6,0.6,1,0.6c2.9,1,6-0.4,7.3-3.1c19.3-6,34.4-13.7,35.5-14.1c1.9-1,3.1-2.9,3.1-5.2c0-25.5-4.6-39.4-4.8-40
		c-0.2-0.4-0.4-0.8-0.6-1.2c-8.5-13.5-8.1-19.5-7.5-21.6c0.4-1,0.8-1.5,0.8-1.5l0,0c2.7-0.8,4.6-3.5,4.1-6.4
		c-6.2-42.1,23.9-49.8,24.9-50c2.3-0.4,9.3-1.5,14.1-1c0.2,0,1,0,1.2,0c5.6-0.4,13.9,1,13.9,1c1.2,0.2,31.5,7.7,25.3,50
		c-0.4,2.9,1,5.4,3.7,6.2c0.2,0,0.6,0.4,1,1.7c0.6,1.9,0.8,7.9-7.5,21.6c-0.2,0.4-0.4,0.8-0.6,1.2c-0.2,0.6-4.8,14.5-4.8,40
		c0,2.1,1.2,4.1,3.1,5.2c1.7,0.8,42.7,22.2,78.4,21.4c15.6-0.6,46.9,8.3,53.5,43.6c0.4,1.9,1.7,3.3,3.3,4.1
		c0.2,0.2,28.2,13.3,42.9,34.4c10.2,14.5,25.3,36.7,20.5,69.5c-0.2,0.4-11.2,48.1-19.3,63.5c-4.1,7.9-0.8,20.5,2.9,32
		c0.2,4.6-0.2,15.1-3.7,21c-0.6,0.8-0.8,1.9-0.8,2.9c0,1-0.4,5.4-2.5,7.3c-0.6,0.4-1.5,1-3.1,1c-2.1,0-3.9,0.6-5,2.5
		c-0.2,0.2-1.7,1.9-6.2,1.2c-1.2-0.2-2.9,0.2-3.9,0.8c-0.2,0-2.3,1.2-6.4,0c-1-0.2-2.3-0.2-3.3,0c-0.2,0-3.5,1-8.9-1
		c-1.2-0.4-2.9-0.2-4.1,0.2c0,0-0.8-1.5-0.2-6.4c0.2-1.7,0.2-3.3-1-4.6c-1.2-1.2-2.5-1.9-4.1-1.9c0,0-1.7-1.9-0.4-9.8
		c3.5-5.8,13.1-19.1,22.4-24.3c1.7-0.8,2.7-2.5,2.9-4.4c0.6-4.1,3.1-25.5,1.2-33.2c-3.5-15.4-7.1-37.6,1.5-52.3c0.8-1.5,1-3.3,0.4-5
		c-0.6-1.7-1.9-2.9-3.7-3.5c-6.6-2.3-25.5-9.1-32-14.9c-11.2-10.2-17.2-16-24.1-26.8c-1.7-2.5-5-3.3-7.5-2.1c-0.4,0.2-0.8,0.6-1,0.8
		c1.7-5,2.9-10,2.9-15.4c0-3.1-2.7-5.8-5.8-5.8c-3.1,0-5.8,2.7-5.8,5.8c0,22.4-21.6,40.7-47.9,40.7c-26.3,0-47.9-18.3-47.9-40.7
		v-24.1c0-3.1-2.7-5.8-5.8-5.8s-5.8,2.7-5.8,5.8v24.1c0,28.8,26.8,52.3,59.5,52.3c24.5,0,45.6-13.1,54.8-31.7c0,0.4,0,0.8,0.2,1.5
		c2.1,5.2,5.2,25.3-45,64.3c-1.7,1.2-2.5,3.1-2.3,5.2c0,0.6,5.4,60.2-6.8,91.3c-1.2,2.9,0.2,6.4,3.3,7.5c2.9,1.2,6.4-0.2,7.5-3.3
		c11.6-29.7,8.9-80.1,7.9-93.4c30.7-24.5,42.9-43.2,46.7-56.4c4.4,4.8,9.1,9.3,15.4,14.9c6.8,6.2,21.4,12,29.9,15.1
		c-6.8,17.4-3.3,39,0.2,54.6c0.8,3.9,0,16.8-1.2,26.3c-13.5,8.9-24.3,27.2-24.7,28c-0.4,0.6-0.6,1.2-0.6,1.9
		c-1.7,9.5-0.6,16.2,3.1,20.5c0.6,0.6,1.2,1.2,1.9,1.7c0,5.6,1.5,9.8,4.8,12.4c2.9,2.3,6.4,2.7,9.1,2.3c5.8,1.9,10.4,1.7,12.9,1.2
		c5.6,1.2,10,0.2,12.4-0.8c6.2,0.4,10.6-1.7,13.3-3.9c3.5-0.4,6.4-1.9,8.9-4.1c4.6-4.4,5.6-11,6-14.1c5.4-10.4,4.6-25.1,4.6-27
		c0-0.4-0.2-1-0.2-1.5c-4.1-12.9-5.6-20.7-3.9-23.7C487.1,386.5,498.1,339,498.8,336.5z M105.2,32.8c1.9,0.2,3.3,0.8,4.1,1.2
		c-0.2,0-0.4,0.2-0.6,0.2c-1.7,0.4-3.1,1.7-3.9,3.3c-0.4-1.7-1.5-3.1-3.1-3.9c-0.2-0.2-0.4-0.2-0.6-0.4
		C101.9,32.8,103.3,32.6,105.2,32.8z M35.5,53.1c-1.2-2.1-3.7-3.1-6-2.5c-3.3,0.6-5.6,0.2-6.2-0.6c-1-1.5,1-6.8,7.3-10.8
		c4.6-2.9,8.9-3.5,11-2.9c0.4,0.2,1.5,0.4,1.7,0.8c0.6,0.8,0,3.3-1.9,6c-1.5,1.9-1.5,4.6-0.2,6.6l6.8,10.6c-1.5,0.8-2.9,1.7-4.4,2.5
		c-0.4,0.2-0.8,0.6-1.5,1L35.5,53.1z M82.8,204.8c-16.6-3.5-31.3-13.7-40.7-28c-14.5-22.4-13.5-52.1,2.3-73.4
		c1.9-2.7,1.2-6.2-1.2-8.1c-2.5-1.9-6.2-1.2-8.1,1.2c-18.7,25.3-19.7,60.2-2.5,86.7c10.6,16.4,27.2,28,45.9,32.8
		c-0.6,1.9-1.2,3.5-1.7,5.6c-0.8,0.4-1.9,1-3.1,1.9c-19.9-5.4-37.3-17.8-48.5-35.3c-12-18.7-16.2-41.1-11.4-62.9
		c4.6-22.2,17.4-40.9,36.1-52.9S90.9,56.2,112.7,61s40.5,17.6,52.5,36.3c13.3,20.7,16.8,45.6,9.8,68.9c-2.3,0.6-4.4,1-6.6,1.7
		c8.3-22.4,5.6-47.5-7.5-67.8c-1.7-2.7-5.4-3.5-8.1-1.7c-2.7,1.7-3.5,5.4-1.7,8.1c12.4,19.3,13.7,43.6,3.5,63.9
		c-4.4,0.6-8.9,0.8-13.1,0.6C125.5,170.7,96.9,178,82.8,204.8z M324.1,291.9c-4.6,0-8.1-3.7-8.1-8.3s3.7-8.3,8.1-8.3
		c4.6,0,8.3,3.7,8.3,8.3S328.6,291.9,324.1,291.9z M184.4,275.1c4.6,0,8.1,3.7,8.1,8.3s-3.7,8.3-8.1,8.3c-4.6,0-8.3-3.7-8.3-8.3
		C176.1,278.8,179.9,275.1,184.4,275.1z M311.4,377v68.5c0,3.1-2.7,5.8-5.8,5.8c-3.3,0-5.8-2.7-5.8-5.8V377
		c0-25.1-20.5-45.6-45.6-45.6s-45.6,20.5-45.6,45.6v66c0,3.1-2.7,5.8-5.8,5.8s-5.8-2.7-5.8-5.8v-66c0-31.5,25.7-57.3,57.3-57.3
		C285.7,319.7,311.4,345.4,311.4,377z M291.3,408.7c2.3,2.3,2.3,6,0,8.3c-0.4,0.4-8.7,8.5-20.3,8.5c0,0,0,0-0.2,0
		c-3.7,0-7.5-0.8-11-2.5v2.3c0,3.1-2.7,5.8-5.8,5.8c-3.3,0-5.8-2.7-5.8-5.8V423c-3.5,1.7-7.1,2.5-11,2.5c0,0,0,0-0.2,0
		c-11.6,0-19.9-8.3-20.3-8.5c-2.3-2.3-2.3-6,0-8.3c2.3-2.3,6-2.3,8.1,0c0,0,5.4,5.2,12,5.2c0,0,0,0,0.2,0c3.7,0,7.3-1.7,10.8-5
		v-12.4c-3.5,1.7-7.1,2.5-11,2.5c0,0,0,0-0.2,0c-11.6,0-19.9-8.3-20.3-8.5c-2.3-2.3-2.3-6,0-8.3c2.3-2.3,6-2.3,8.3,0
		c0.2,0.2,5.4,5.2,12,5.2c0,0,0,0,0.2,0c3.7,0,7.3-1.7,10.8-5V373c-3.5,1.7-7.1,2.5-11,2.5c0,0,0,0-0.2,0c-11.6,0-19.9-8.3-20.3-8.5
		c-2.3-2.3-2.3-6,0-8.3s6-2.3,8.1,0c0,0,5.4,5.2,12,5.2c0,0,0,0,0.2,0c3.7,0,7.3-1.7,10.8-5v-10.4c0-3.1,2.7-5.8,5.8-5.8
		s5.8,2.7,5.8,5.8v10.4c3.5,3.1,7.3,5,10.8,5h0.2c6.8,0,12-5.2,12-5.2c2.3-2.3,6-2.3,8.3,0s2.3,5.8,0,8.1c-0.4,0.4-8.7,8.5-20.3,8.5
		l0,0c-3.7,0-7.5-0.8-11-2.5v9.3c3.5,3.1,7.3,5,10.8,5h0.2c6.8,0,12-5.2,12-5.2c2.3-2.3,6-2.3,8.3,0s2.3,6,0,8.3
		c-0.4,0.4-8.7,8.5-20.3,8.5c0,0,0,0-0.2,0c-3.7,0-7.5-0.8-11-2.5v12.4c3.5,3.1,7.3,5,11,5l0,0c6.8,0,12-5.2,12-5.2
		C285.3,406.4,289,406.4,291.3,408.7z M261.2,448.8c0,3.9-3.1,7.1-7.1,7.1c-3.9,0-7.1-3.1-7.1-7.1c0-3.9,3.1-7.1,7.1-7.1
		C258.1,441.7,261.2,445,261.2,448.8z M115.6,238.2c3.1-0.4,6,2.1,6.2,5.4c0.2,3.1-2.1,6-5.4,6.2c-45.4,3.7-49.8,41.9-49.8,43.6
		c-0.2,2.9-2.9,5.2-5.8,5.2c-0.2,0-0.4,0-0.6,0c-3.1-0.2-5.6-3.1-5.2-6.4C55.2,291.7,60.4,242.7,115.6,238.2z M398.5,244.2
		c-3.1-0.4-5.4-3.3-5.2-6.4c0.4-3.1,3.1-5.6,6.4-5.2c0.4,0,49.4,5.8,53.3,61c0.2,3.1-2.3,6-5.4,6.2c-0.2,0-0.2,0-0.4,0
		c-2.9,0-5.6-2.3-5.8-5.4C438.4,249.2,400.2,244.4,398.5,244.2z"/>
</g>
</svg>
