<?xml version="1.0" encoding="utf-8"?>
<!-- Generator: Adobe Illustrator 18.0.0, SVG Export Plug-In . SVG Version: 6.00 Build 0)  -->
<!DOCTYPE svg PUBLIC "-//W3C//DTD SVG 1.1//EN" "http://www.w3.org/Graphics/SVG/1.1/DTD/svg11.dtd">
<svg version="1.1" id="Layer_1" xmlns="http://www.w3.org/2000/svg" xmlns:xlink="http://www.w3.org/1999/xlink" x="0px" y="0px"
	 viewBox="0 0 500 500" enable-background="new 0 0 500 500" xml:space="preserve">
<g>
	<g>
		<path fill="#FFFFFF" d="M437.4,115c-4.2-6.4-12.9-7.4-18.3-2.4c-22.1,20-23.7,21.3-29.5,27.1l-31.4-4.3L355,144
			c4,8.3,4.6,17.9,1.5,26.7l6.3,0.9c-8.2,11.6-15.3,23.8-21.4,36.5c-1,19.8,0.8,39.6,5.5,59c7.2-33.6,22-65,43.4-91.7l12.5,1.7
			c9.6,1.3,18.5-5.4,19.8-15c0.8-5.8-1.4-11.3-5.3-15.1l17.8-16.1C439.6,126.7,440.7,120,437.4,115z"/>
	</g>
</g>
<g>
	<g>
		<path fill="#FFFFFF" d="M343.8,100.3c-6.3-2.3-13.2,0.9-15.6,7.2l-6.1,16.6c8.6-0.3,16.7,2.5,23,7.6l5.8-15.7
			C353.3,109.5,350.1,102.6,343.8,100.3z"/>
	</g>
</g>
<g>
	<g>
		<path fill="#FFFFFF" d="M361.1,459.7c19.7-5.1,34.3-22.9,34.3-44.2c0-8-2.1-15.6-5.7-22.1c-3.9-7.1-9.7-13-16.7-17.2l-30.1-76.9
			c-13.2-33.8-17.8-69.9-13.8-105.4c-1.3,0.2,0.2,0-24.6,2.8c-3.4,37.6,1.9,75.7,15.9,111.4l23.9,61l-15.4-2l-14.3-36.6l-3.7,34.2
			l-44.9-6c-3.3,5.4-7.8,9.8-13.7,13.1l7.5,0.4c7.3,0.4,13.4,6,13.7,13.3c0.4,8.5-6.6,15.2-14.7,14.8c-5.9-0.3-44.4-2.1-49.5-2.4
			c-7.8-0.4-13.7-7-13.4-14.7c0.3-6.7,5.5-13.8,16-13.3c-7-4.9-12.2-12.1-14.7-20.3l-24.6-3.3l12.2-38.2c0.8-2.6,1.1-5.4,0.9-8.2
			l-4.2-41.8c-38.9-7.3-37.8-6.9-41.7-8.3l5,49.9l-12.6,39.4c-39.9,2.6-71.5,35.7-71.5,76.3c0,22.4,9.6,42.5,24.9,56.5l-11.3,11.3
			c-3.4,3.4-4.1,8.9-1.2,12.8c3.6,4.8,10.5,5.2,14.7,1.1l13.9-13.9c10.6,5.5,22.6,8.7,35.4,8.7c11.4,0,199.8-29.1,199.8-29.1
			l33.8,34.3c3.8,3.8,9.9,3.9,13.7,0.1c3.8-3.8,3.9-9.9,0.1-13.7L361.1,459.7z M182.8,417.8c-1.2,23.2-20,42.1-43.3,43.3
			c-27.1,1.4-49.4-20.9-48-48c1.2-23.2,20-42.1,43.3-43.3C161.9,368.4,184.2,390.7,182.8,417.8z"/>
	</g>
</g>
<g>
	<g>
		<path fill="#FFFFFF" d="M269.9,4.4c-20.8-10.8-46.3-1-54.4,21c-6.7,18.2,1.3,38.8,18.5,47.8c20.8,10.8,46.3,1,54.4-21
			C295,34,287,13.3,269.9,4.4z"/>
	</g>
</g>
<g>
	<g>
		<path fill="#FFFFFF" d="M321.4,141.7l-60.4,6.8l-36.7-43.7c7.9,5.6,19.5,13.7,36.8,26l44.3-5c0,0-65.1-28.6-104.4-45.9
			c-12-5.3-26.6,2.2-31.9,16.3c-3.8,10.1-34,89.6-38.9,102.5c-5.3,14,0,29.2,12.4,33.9c4.1,2.3,0.1,1.1,79.7,16l-9.5,87.9
			c-1.4,12.5,8.4,23.4,21,23.4c10.6,0,19.8-8,21-18.8l11.6-107.3c1.2-11-6.3-21-17.1-23l-33.5-6.2l8.4-20.2c-2.8-6-24-51-26.7-56.8
			l42.7,50.9c3.7,4.4,9.5,6.8,15.4,6.2l69.4-7.8c9-1,16.1-8.5,16.1-17.5C340.9,148.5,331.7,140.5,321.4,141.7z"/>
	</g>
</g>
</svg>
