<?xml version="1.0" encoding="utf-8"?>
<!-- Generator: Adobe Illustrator 18.0.0, SVG Export Plug-In . SVG Version: 6.00 Build 0)  -->
<!DOCTYPE svg PUBLIC "-//W3C//DTD SVG 1.1//EN" "http://www.w3.org/Graphics/SVG/1.1/DTD/svg11.dtd">
<svg version="1.1" id="Capa_1" xmlns="http://www.w3.org/2000/svg" xmlns:xlink="http://www.w3.org/1999/xlink" x="0px" y="0px"
	 viewBox="225 224.1 50 51.8" enable-background="new 225 224.1 50 51.8" xml:space="preserve">
<path fill="#FF9800" d="M274.2,271.3l-12.3-12.8c3.2-3.8,4.9-8.5,4.9-13.4c0-11.5-9.4-20.9-20.9-20.9c-11.5,0-20.9,9.4-20.9,20.9
	c0,11.5,9.4,20.9,20.9,20.9c4.3,0,8.5-1.3,12-3.8l12.4,12.9c0.5,0.5,1.2,0.8,2,0.8c0.7,0,1.4-0.3,1.9-0.8
	C275.2,274.1,275.3,272.4,274.2,271.3z M245.9,229.6c8.5,0,15.5,6.9,15.5,15.5s-6.9,15.5-15.5,15.5s-15.5-6.9-15.5-15.5
	S237.4,229.6,245.9,229.6z"/>
</svg>
