<?xml version="1.0" encoding="utf-8"?>
<!-- Generator: Adobe Illustrator 18.0.0, SVG Export Plug-In . SVG Version: 6.00 Build 0)  -->
<!DOCTYPE svg PUBLIC "-//W3C//DTD SVG 1.1//EN" "http://www.w3.org/Graphics/SVG/1.1/DTD/svg11.dtd">
<svg version="1.1" id="Layer_1" xmlns="http://www.w3.org/2000/svg" xmlns:xlink="http://www.w3.org/1999/xlink" x="0px" y="0px"
	 viewBox="225 229.2 50 41.7" enable-background="new 225 229.2 50 41.7" xml:space="preserve">
<g>
	<path fill="#FF9800" d="M275,231.3c0-1.3-0.8-2.1-2.1-2.1h-45.8c-1.3,0-2.1,0.8-2.1,2.1v4.2c0,1.3,0.8,2.1,2.1,2.1h45.8
		c1.3,0,2.1-0.8,2.1-2.1V231.3z"/>
	<path fill="#FF9800" d="M275,247.9c0-1.3-0.8-2.1-2.1-2.1h-45.8c-1.3,0-2.1,0.8-2.1,2.1v4.2c0,1.3,0.8,2.1,2.1,2.1h45.8
		c1.3,0,2.1-0.8,2.1-2.1V247.9z"/>
	<path fill="#FF9800" d="M275,264.6c0-1.3-0.8-2.1-2.1-2.1h-45.8c-1.3,0-2.1,0.8-2.1,2.1v4.2c0,1.3,0.8,2.1,2.1,2.1h45.8
		c1.3,0,2.1-0.8,2.1-2.1V264.6z"/>
</g>
</svg>
