<?xml version="1.0" encoding="utf-8"?>
<!-- Generator: Adobe Illustrator 18.0.0, SVG Export Plug-In . SVG Version: 6.00 Build 0)  -->
<!DOCTYPE svg PUBLIC "-//W3C//DTD SVG 1.1//EN" "http://www.w3.org/Graphics/SVG/1.1/DTD/svg11.dtd">
<svg version="1.1" id="Layer_1" xmlns="http://www.w3.org/2000/svg" xmlns:xlink="http://www.w3.org/1999/xlink" x="0px" y="0px"
	 viewBox="0 0 500 500" enable-background="new 0 0 500 500" xml:space="preserve">
<g>
	<g>
		<path fill="#FFFFFF" d="M484.2,99h-13.3c0-24.9,0-19.5,0-44.5c0-4.6-3.7-8.3-8.3-8.3h-22.8c-4.6,0-8.3,3.7-8.3,8.3
			c0,25,0,19.7,0,44.5h-29.1c1.2-12.8-8.2-23.9-20.6-25.2c-12.8-1.3-24.1,8-25.5,20.6l-0.5,4.6h-40.1
			c-11.8,25.6-37.4,42.1-65.7,42.1c-28.7,0-54-16.9-65.7-42.1h-40l-0.5-4.6c-1.3-12.7-12.8-21.9-25.5-20.6
			C105.9,75.1,96.5,86.2,97.7,99H68.5c0-24.9,0-19.5,0-44.5c0-4.6-3.7-8.3-8.3-8.3H37.4c-4.6,0-8.3,3.7-8.3,8.3c0,25,0,19.7,0,44.5
			H15.8C7.1,99,0,106.1,0,114.8s7.1,15.8,15.8,15.8h13.3c0,24.9,0,19.5,0,44.5c0,4.6,3.7,8.3,8.3,8.3h22.8c4.6,0,8.3-3.7,8.3-8.3
			c0-25,0-19.7,0-44.5H101c1,9.4,8.1,76.2,9.1,86.1c2.1,19.8,27.1,28.2,40.5,12.8l32.6-37.3v88.7l-84.3,34.2
			c-9.8,4-16.8,12.9-18.4,23.4L63.7,448.7c-2.5,16.5,8.8,31.8,25.2,34.3s31.8-8.8,34.3-25.2l14.2-93.3l77.9-31.7h69.2l77.9,31.7
			l14.2,93.3c2.5,16.5,17.9,27.7,34.3,25.2s27.7-17.9,25.2-34.3l-16.8-110.2c-1.6-10.5-8.6-19.4-18.4-23.4L316,280.6v-89.2
			l33.3,38.1c13.1,15,38.3,7.6,40.5-12.8c1-9.9,8.1-76.7,9.1-86.1h32.4c0,24.9,0,19.5,0,44.5c0,4.6,3.7,8.3,8.3,8.3h22.8
			c4.6,0,8.3-3.7,8.3-8.3c0-25,0-19.7,0-44.5H484c8.7,0,15.8-7.1,15.8-15.8C500,106.1,492.9,99,484.2,99z M150.6,159
			c-1.2-11.8-1.8-16.8-3-28.4h27.9C165.4,142.1,160.9,147.3,150.6,159z M349.4,159c-11.5-13.2,3.3,3.8-24.9-28.4h27.9
			C350.1,152.7,350.7,147.2,349.4,159z"/>
	</g>
</g>
<g>
	<g>
		<circle fill="#FFFFFF" cx="250" cy="68.7" r="52"/>
	</g>
</g>
</svg>
